<?xml version="1.0" encoding="UTF-8" standalone="no"?>
<svg width="150" height="40" viewBox="0 0 150 40" fill="none" xmlns="http://www.w3.org/2000/svg">
  <rect width="150" height="40" rx="4" fill="#FF5722"/>
  <path d="M14.5 10C12.5 10 11 11.5 11 13.5C11 15.5 12.5 17 14.5 17H18V23H14.5C12.5 23 11 24.5 11 26.5C11 28.5 12.5 30 14.5 30H22V10H14.5Z" fill="white"/>
  <path d="M30.5 10C28.5 10 27 11.5 27 13.5C27 15.5 28.5 17 30.5 17H34V23H30.5C28.5 23 27 24.5 27 26.5C27 28.5 28.5 30 30.5 30H38V10H30.5Z" fill="white"/>
  <path d="M46 10V30H54C56 30 58 28 58 26V14C58 12 56 10 54 10H46ZM50 14H54V26H50V14Z" fill="white"/>
  <path d="M64 10V30H72C74 30 76 28 76 26V20C76 18 74 16 72 16C74 16 76 14 76 12V10H64ZM68 14H72V16H68V14ZM68 20H72V26H68V20Z" fill="white"/>
  <path d="M82 10V30H90C92 30 94 28 94 26V14C94 12 92 10 90 10H82ZM86 14H90V26H86V14Z" fill="white"/>
  <path d="M100 10V30H108C110 30 112 28 112 26V20C112 18 110 16 108 16C110 16 112 14 112 12V10H100ZM104 14H108V16H104V14ZM104 20H108V26H104V20Z" fill="white"/>
  <path d="M118 10V30H126C128 30 130 28 130 26V14C130 12 128 10 126 10H118ZM122 14H126V26H122V14Z" fill="white"/>
  <path d="M136 10V30H144C146 30 148 28 148 26V14C148 12 146 10 144 10H136ZM140 14H144V26H140V14Z" fill="white"/>
</svg>
