<?xml version="1.0" encoding="UTF-8" standalone="no"?>
<svg width="180" height="40" viewBox="0 0 180 40" fill="none" xmlns="http://www.w3.org/2000/svg">
  <rect width="180" height="40" rx="4" fill="#FF5722"/>
  <!-- Camera Icon -->
  <g transform="translate(10,8)">
    <path d="M20 5H16.83L15 3H9L7.17 5H4C2.9 5 2 5.9 2 7V19C2 20.1 2.9 21 4 21H20C21.1 21 22 20.1 22 19V7C22 5.9 21.1 5 20 5ZM12 18C9.24 18 7 15.76 7 13C7 10.24 9.24 8 12 8C14.76 8 17 10.24 17 13C17 15.76 14.76 18 12 18ZM12 10C10.34 10 9 11.34 9 13C9 14.66 10.34 16 12 16C13.66 16 15 14.66 15 13C15 11.34 13.66 10 12 10Z" fill="white"/>
  </g>
  <!-- SportShot Text (as paths instead of text) -->
  <path d="M48.9 26.5C47.3 26.5 46 26.1 45 25.2C44 24.3 43.5 23.1 43.5 21.5H46.5C46.5 22.1 46.7 22.6 47.1 23C47.5 23.4 48.1 23.6 48.9 23.6C49.6 23.6 50.2 23.4 50.6 23.1C51 22.8 51.2 22.3 51.2 21.8C51.2 21.3 51 20.9 50.7 20.6C50.4 20.3 50 20.1 49.5 19.9C49 19.7 48.3 19.5 47.4 19.3C46.2 19 45.3 18.5 44.6 17.9C43.9 17.3 43.6 16.4 43.6 15.3C43.6 14.4 43.8 13.6 44.3 13C44.8 12.4 45.4 11.9 46.2 11.6C47 11.3 47.9 11.1 48.9 11.1C50.5 11.1 51.7 11.5 52.7 12.3C53.7 13.1 54.2 14.2 54.3 15.7H51.2C51.1 15.1 50.9 14.6 50.5 14.3C50.1 14 49.5 13.8 48.8 13.8C48.2 13.8 47.7 14 47.3 14.3C46.9 14.6 46.7 15 46.7 15.5C46.7 15.9 46.9 16.3 47.2 16.6C47.5 16.9 47.9 17.1 48.3 17.3C48.8 17.5 49.4 17.7 50.3 17.9C51.5 18.2 52.4 18.7 53.1 19.3C53.8 19.9 54.2 20.8 54.2 21.9C54.2 22.7 54 23.5 53.5 24.1C53 24.8 52.4 25.3 51.6 25.7C50.8 26.1 49.9 26.5 48.9 26.5Z" fill="white"/>
  <path d="M61.3 26.5C60.2 26.5 59.2 26.2 58.4 25.7C57.6 25.2 56.9 24.5 56.5 23.5C56.1 22.5 55.9 21.4 55.9 20.1V11.5H59V20.1C59 21.1 59.2 21.9 59.7 22.4C60.2 22.9 60.8 23.2 61.6 23.2C62.1 23.2 62.6 23.1 63 22.8C63.4 22.5 63.7 22.1 64 21.6C64.3 21.1 64.4 20.5 64.4 19.8V11.5H67.5V26H64.6V23.3H64.4C64.1 24.2 63.6 25 62.9 25.6C62.2 26.2 61.3 26.5 60.3 26.5H61.3Z" fill="white"/>
  <path d="M75.6 26.5C74.3 26.5 73.2 26.2 72.3 25.7C71.4 25.2 70.7 24.4 70.2 23.5C69.7 22.6 69.5 21.5 69.5 20.3V11.5H72.6V20C72.6 21 72.8 21.8 73.3 22.4C73.8 23 74.5 23.3 75.4 23.3C76.3 23.3 77 23 77.5 22.4C78 21.8 78.3 21 78.3 20V11.5H81.4V26H78.5V23.3H78.3C78 24.2 77.5 24.9 76.8 25.5C76.1 26.1 75.2 26.5 74.1 26.5H75.6Z" fill="white"/>
  <path d="M89.5 26.5C88.2 26.5 87.1 26.2 86.1 25.7C85.1 25.2 84.3 24.4 83.7 23.5C83.1 22.6 82.8 21.5 82.8 20.3V11.5H85.9V20C85.9 21 86.1 21.8 86.6 22.4C87.1 23 87.8 23.3 88.7 23.3C89.6 23.3 90.3 23 90.8 22.4C91.3 21.8 91.6 21 91.6 20V11.5H94.7V26H91.8V23.3H91.6C91.3 24.2 90.8 24.9 90.1 25.5C89.4 26.1 88.5 26.5 87.4 26.5H89.5Z" fill="white"/>
  <path d="M102.8 26.5C101.5 26.5 100.4 26.2 99.4 25.7C98.4 25.2 97.6 24.4 97 23.5C96.4 22.6 96.1 21.5 96.1 20.3V11.5H99.2V20C99.2 21 99.4 21.8 99.9 22.4C100.4 23 101.1 23.3 102 23.3C102.9 23.3 103.6 23 104.1 22.4C104.6 21.8 104.9 21 104.9 20V11.5H108V26H105.1V23.3H104.9C104.6 24.2 104.1 24.9 103.4 25.5C102.7 26.1 101.8 26.5 100.7 26.5H102.8Z" fill="white"/>
  <path d="M116.1 26.5C114.8 26.5 113.7 26.2 112.7 25.7C111.7 25.2 110.9 24.4 110.3 23.5C109.7 22.6 109.4 21.5 109.4 20.3V11.5H112.5V20C112.5 21 112.7 21.8 113.2 22.4C113.7 23 114.4 23.3 115.3 23.3C116.2 23.3 116.9 23 117.4 22.4C117.9 21.8 118.2 21 118.2 20V11.5H121.3V26H118.4V23.3H118.2C117.9 24.2 117.4 24.9 116.7 25.5C116 26.1 115.1 26.5 114 26.5H116.1Z" fill="white"/>
  <path d="M129.4 26.5C127.8 26.5 126.5 26.1 125.5 25.2C124.5 24.3 124 23.1 124 21.5H127C127 22.1 127.2 22.6 127.6 23C128 23.4 128.6 23.6 129.4 23.6C130.1 23.6 130.7 23.4 131.1 23.1C131.5 22.8 131.7 22.3 131.7 21.8C131.7 21.3 131.5 20.9 131.2 20.6C130.9 20.3 130.5 20.1 130 19.9C129.5 19.7 128.8 19.5 127.9 19.3C126.7 19 125.8 18.5 125.1 17.9C124.4 17.3 124.1 16.4 124.1 15.3C124.1 14.4 124.3 13.6 124.8 13C125.3 12.4 125.9 11.9 126.7 11.6C127.5 11.3 128.4 11.1 129.4 11.1C131 11.1 132.2 11.5 133.2 12.3C134.2 13.1 134.7 14.2 134.8 15.7H131.7C131.6 15.1 131.4 14.6 131 14.3C130.6 14 130 13.8 129.3 13.8C128.7 13.8 128.2 14 127.8 14.3C127.4 14.6 127.2 15 127.2 15.5C127.2 15.9 127.4 16.3 127.7 16.6C128 16.9 128.4 17.1 128.8 17.3C129.3 17.5 129.9 17.7 130.8 17.9C132 18.2 132.9 18.7 133.6 19.3C134.3 19.9 134.7 20.8 134.7 21.9C134.7 22.7 134.5 23.5 134 24.1C133.5 24.8 132.9 25.3 132.1 25.7C131.3 26.1 130.4 26.5 129.4 26.5Z" fill="white"/>
  <path d="M142.7 26.5C141.4 26.5 140.3 26.2 139.3 25.7C138.3 25.2 137.5 24.4 136.9 23.5C136.3 22.6 136 21.5 136 20.3V11.5H139.1V20C139.1 21 139.3 21.8 139.8 22.4C140.3 23 141 23.3 141.9 23.3C142.8 23.3 143.5 23 144 22.4C144.5 21.8 144.8 21 144.8 20V11.5H147.9V26H145V23.3H144.8C144.5 24.2 144 24.9 143.3 25.5C142.6 26.1 141.7 26.5 140.6 26.5H142.7Z" fill="white"/>
  <path d="M156 26.5C154.7 26.5 153.6 26.2 152.6 25.7C151.6 25.2 150.8 24.4 150.2 23.5C149.6 22.6 149.3 21.5 149.3 20.3V11.5H152.4V20C152.4 21 152.6 21.8 153.1 22.4C153.6 23 154.3 23.3 155.2 23.3C156.1 23.3 156.8 23 157.3 22.4C157.8 21.8 158.1 21 158.1 20V11.5H161.2V26H158.3V23.3H158.1C157.8 24.2 157.3 24.9 156.6 25.5C155.9 26.1 155 26.5 153.9 26.5H156Z" fill="white"/>
</svg>
